ffmpeg started on 2025-05-06 at 09:28:44
Report written to "D:\Convert\FFMetrics\reports\psnr_report-6.txt"
Log level: 32
Command line:
ffmpeg -hide_banner -nostdin -i "G:\\\xc0\xed\xe8\xec\xe5\\\xce\xed\xe3\xee\xe8\xed\xe3\xe8\\!_35_\xcb\xe5\xf2\xee_2024\\JamClub\\\xc1\xe0\xf1\xed\xff\\[JAM_CLUB]_The_Fable_05_[1080p][RUS][DUB]_HEVC.mkv" -i "G:\\\xc0\xed\xe8\xec\xe5\\\xce\xed\xe3\xee\xe8\xed\xe3\xe8\\!_35_\xcb\xe5\xf2\xee_2024\\JamClub\\\xc1\xe0\xf1\xed\xff\\[JAM_CLUB]_The_Fable_05_[1080p][RUS][DUB].mp4" -lavfi "[0:v]settb=AVTB,setpts=PTS-STARTPTS,format=pix_fmts=yuv420p10,fps=24000/1001,scale=1920:1080:flags=bicubic[main];[1:v]settb=AVTB,setpts=PTS-STARTPTS,format=pix_fmts=yuv420p,fps=24000/1001,scale=1920:1080:flags=bicubic[ref];[main][ref]psnr=eof_action=endall:stats_file='D\\:/Convert/FFMetrics/logs/psnr_logfile-6.txt'" -f null -
Input #0, matroska,webm, from 'G:\Аниме\Онгоинги\!_35_Лето_2024\JamClub\Басня\[JAM_CLUB]_The_Fable_05_[1080p][RUS][DUB]_HEVC.mkv':
  Metadata:
    COMPATIBLE_BRANDS: isomiso2avc1mp41
    MAJOR_BRAND     : isom
    MINOR_VERSION   : 512
    ENCODER         : Lavf61.7.100
  Duration: 00:23:14.33, start: -0.001000, bitrate: 1060 kb/s
  Stream #0:0: Video: hevc (Main 10), yuv420p10le(tv, bt709, progressive), 1920x1080 [SAR 1:1 DAR 16:9], 23.98 fps, 23.98 tbr, 1k tbn (default)
      Metadata:
        HANDLER_NAME    : VideoHandler
        VENDOR_ID       : [0][0][0][0]
        ENCODER         : Lavc61.19.100 libx265
        BPS             : 860683
        DURATION        : 00:23:14.184708333
        NUMBER_OF_FRAMES: 33427
        NUMBER_OF_BYTES : 149993938
        _STATISTICS_WRITING_APP: mkvpropedit v66.0.0 ('Josie') 64-bit
        _STATISTICS_WRITING_DATE_UTC: 2025-05-05 12:59:21
        _STATISTICS_TAGS: BPS DURATION NUMBER_OF_FRAMES NUMBER_OF_BYTES
  Stream #0:1(eng): Audio: aac (LC), 48000 Hz, stereo, fltp (default)
      Metadata:
        HANDLER_NAME    : SoundHandler
        VENDOR_ID       : [0][0][0][0]
        ENCODER         : Lavc61.19.100 aac
        BPS             : 195413
        DURATION        : 00:23:14.285000000
        NUMBER_OF_FRAMES: 65358
        NUMBER_OF_BYTES : 34057772
        _STATISTICS_WRITING_APP: mkvpropedit v66.0.0 ('Josie') 64-bit
        _STATISTICS_WRITING_DATE_UTC: 2025-05-05 12:59:21
        _STATISTICS_TAGS: BPS DURATION NUMBER_OF_FRAMES NUMBER_OF_BYTES
Input #1, mov,mp4,m4a,3gp,3g2,mj2, from 'G:\Аниме\Онгоинги\!_35_Лето_2024\JamClub\Басня\[JAM_CLUB]_The_Fable_05_[1080p][RUS][DUB].mp4':
  Metadata:
    major_brand     : isom
    minor_version   : 512
    compatible_brands: isomiso2avc1mp41
    encoder         : Lavf60.16.100
  Duration: 00:23:14.31, start: 0.000000, bitrate: 3743 kb/s
  Stream #1:0[0x1](und): Video: h264 (High) (avc1 / 0x31637661), yuv420p(progressive), 1920x1080, 3545 kb/s, 23.98 fps, 23.98 tbr, 90k tbn (default)
      Metadata:
        handler_name    : VideoHandler
        vendor_id       : [0][0][0][0]
  Stream #1:1[0x2](eng): Audio: aac (LC) (mp4a / 0x6134706D), 48000 Hz, stereo, fltp, 191 kb/s (default)
      Metadata:
        handler_name    : SoundHandler
        vendor_id       : [0][0][0][0]
Stream mapping:
  Stream #0:0 (hevc) -> settb:default
  Stream #1:0 (h264) -> settb:default
  psnr:default -> Stream #0:0 (wrapped_avframe)
  Stream #0:1 -> #0:1 (aac (native) -> pcm_s16le (native))
Output #0, null, to 'pipe:':
  Metadata:
    COMPATIBLE_BRANDS: isomiso2avc1mp41
    MAJOR_BRAND     : isom
    MINOR_VERSION   : 512
    encoder         : Lavf61.7.100
  Stream #0:0: Video: wrapped_avframe, yuv420p10le(tv, bt709, progressive), 1920x1080 [SAR 1:1 DAR 16:9], q=2-31, 200 kb/s, 23.98 fps, 23.98 tbn
      Metadata:
        encoder         : Lavc61.19.100 wrapped_avframe
  Stream #0:1(eng): Audio: pcm_s16le, 48000 Hz, stereo, s16, 1536 kb/s (default)
      Metadata:
        HANDLER_NAME    : SoundHandler
        VENDOR_ID       : [0][0][0][0]
        _STATISTICS_TAGS: BPS DURATION NUMBER_OF_FRAMES NUMBER_OF_BYTES
        BPS             : 195413
        DURATION        : 00:23:14.285000000
        NUMBER_OF_FRAMES: 65358
        NUMBER_OF_BYTES : 34057772
        _STATISTICS_WRITING_APP: mkvpropedit v66.0.0 ('Josie') 64-bit
        _STATISTICS_WRITING_DATE_UTC: 2025-05-05 12:59:21
        encoder         : Lavc61.19.100 pcm_s16le
frame=  119 fps=0.0 q=-0.0 size=N/A time=00:00:04.96 bitrate=N/A speed=9.62x    frame=  280 fps=273 q=-0.0 size=N/A time=00:00:11.67 bitrate=N/A speed=11.4x    frame=  473 fps=305 q=-0.0 size=N/A time=00:00:19.72 bitrate=N/A speed=12.7x    frame=  690 fps=335 q=-0.0 size=N/A time=00:00:28.77 bitrate=N/A speed=  14x    frame=  904 fps=351 q=-0.0 size=N/A time=00:00:37.70 bitrate=N/A speed=14.6x    frame= 1135 fps=366 q=-0.0 size=N/A time=00:00:47.33 bitrate=N/A speed=15.3x    frame= 1324 fps=367 q=-0.0 size=N/A time=00:00:55.22 bitrate=N/A speed=15.3x    frame= 1533 fps=371 q=-0.0 size=N/A time=00:01:03.93 bitrate=N/A speed=15.5x    frame= 1778 fps=383 q=-0.0 size=N/A time=00:01:14.15 bitrate=N/A speed=  16x    frame= 2025 fps=392 q=-0.0 size=N/A time=00:01:24.45 bitrate=N/A speed=16.4x    frame= 2243 fps=396 q=-0.0 size=N/A time=00:01:33.55 bitrate=N/A speed=16.5x    frame= 2484 fps=401 q=-0.0 size=N/A time=00:01:43.60 bitrate=N/A speed=16.7x    frame= 2714 fps=405 q=-0.0 size=N/A time=00:01:53.19 bitrate=N/A speed=16.9x    frame= 2951 fps=409 q=-0.0 size=N/A time=00:02:03.08 bitrate=N/A speed=  17x    frame= 3185 fps=412 q=-0.0 size=N/A time=00:02:12.84 bitrate=N/A speed=17.2x    frame= 3452 fps=418 q=-0.0 size=N/A time=00:02:23.97 bitrate=N/A speed=17.4x    frame= 3705 fps=423 q=-0.0 size=N/A time=00:02:34.52 bitrate=N/A speed=17.6x    frame= 3963 fps=427 q=-0.0 size=N/A time=00:02:45.29 bitrate=N/A speed=17.8x    frame= 4226 fps=431 q=-0.0 size=N/A time=00:02:56.25 bitrate=N/A speed=  18x    frame= 4492 fps=436 q=-0.0 size=N/A time=00:03:07.35 bitrate=N/A speed=18.2x    frame= 4760 fps=440 q=-0.0 size=N/A time=00:03:18.53 bitrate=N/A speed=18.3x    frame= 5005 fps=441 q=-0.0 size=N/A time=00:03:28.75 bitrate=N/A speed=18.4x    frame= 5277 fps=444 q=-0.0 size=N/A time=00:03:40.09 bitrate=N/A speed=18.5x    frame= 5542 fps=447 q=-0.0 size=N/A time=00:03:51.14 bitrate=N/A speed=18.7x    frame= 5812 fps=450 q=-0.0 size=N/A time=00:04:02.40 bitrate=N/A speed=18.8x    frame= 6065 fps=452 q=-0.0 size=N/A time=00:04:12.96 bitrate=N/A speed=18.9x    frame= 6325 fps=454 q=-0.0 size=N/A time=00:04:23.80 bitrate=N/A speed=18.9x    frame= 6593 fps=456 q=-0.0 size=N/A time=00:04:34.98 bitrate=N/A speed=  19x    frame= 6817 fps=456 q=-0.0 size=N/A time=00:04:44.32 bitrate=N/A speed=  19x    frame= 7007 fps=453 q=-0.0 size=N/A time=00:04:52.25 bitrate=N/A speed=18.9x    frame= 7276 fps=455 q=-0.0 size=N/A time=00:05:03.51 bitrate=N/A speed=  19x    frame= 7522 fps=455 q=-0.0 size=N/A time=00:05:13.73 bitrate=N/A speed=  19x    frame= 7789 fps=457 q=-0.0 size=N/A time=00:05:24.86 bitrate=N/A speed=19.1x    frame= 8023 fps=457 q=-0.0 size=N/A time=00:05:34.62 bitrate=N/A speed=19.1x    frame= 8240 fps=456 q=-0.0 size=N/A time=00:05:43.67 bitrate=N/A speed=  19x    frame= 8420 fps=453 q=-0.0 size=N/A time=00:05:51.18 bitrate=N/A speed=18.9x    frame= 8651 fps=453 q=-0.0 size=N/A time=00:06:00.81 bitrate=N/A speed=18.9x    frame= 8871 fps=452 q=-0.0 size=N/A time=00:06:09.99 bitrate=N/A speed=18.9x    frame= 9071 fps=451 q=-0.0 size=N/A time=00:06:18.33 bitrate=N/A speed=18.8x    frame= 9267 fps=449 q=-0.0 size=N/A time=00:06:26.51 bitrate=N/A speed=18.7x    frame= 9516 fps=450 q=-0.0 size=N/A time=00:06:36.89 bitrate=N/A speed=18.8x    frame= 9749 fps=450 q=-0.0 size=N/A time=00:06:46.61 bitrate=N/A speed=18.8x    frame=10013 fps=451 q=-0.0 size=N/A time=00:06:57.62 bitrate=N/A speed=18.8x    frame=10280 fps=453 q=-0.0 size=N/A time=00:07:08.76 bitrate=N/A speed=18.9x    frame=10509 fps=453 q=-0.0 size=N/A time=00:07:18.31 bitrate=N/A speed=18.9x    frame=10738 fps=452 q=-0.0 size=N/A time=00:07:27.86 bitrate=N/A speed=18.9x    frame=10972 fps=452 q=-0.0 size=N/A time=00:07:37.62 bitrate=N/A speed=18.9x    frame=11243 fps=454 q=-0.0 size=N/A time=00:07:48.92 bitrate=N/A speed=18.9x    frame=11484 fps=454 q=-0.0 size=N/A time=00:07:58.97 bitrate=N/A speed=18.9x    frame=11734 fps=454 q=-0.0 size=N/A time=00:08:09.40 bitrate=N/A speed=  19x    frame=11988 fps=455 q=-0.0 size=N/A time=00:08:19.99 bitrate=N/A speed=  19x    frame=12246 fps=456 q=-0.0 size=N/A time=00:08:30.76 bitrate=N/A speed=  19x    frame=12459 fps=455 q=-0.0 size=N/A time=00:08:39.64 bitrate=N/A speed=  19x    frame=12694 fps=455 q=-0.0 size=N/A time=00:08:49.44 bitrate=N/A speed=  19x    frame=12942 fps=456 q=-0.0 size=N/A time=00:08:59.78 bitrate=N/A speed=  19x    frame=13198 fps=456 q=-0.0 size=N/A time=00:09:10.46 bitrate=N/A speed=  19x    frame=13464 fps=458 q=-0.0 size=N/A time=00:09:21.56 bitrate=N/A speed=19.1x    frame=13694 fps=458 q=-0.0 size=N/A time=00:09:31.15 bitrate=N/A speed=19.1x    frame=13932 fps=457 q=-0.0 size=N/A time=00:09:41.08 bitrate=N/A speed=19.1x    frame=14189 fps=458 q=-0.0 size=N/A time=00:09:51.79 bitrate=N/A speed=19.1x    frame=14452 fps=459 q=-0.0 size=N/A time=00:10:02.76 bitrate=N/A speed=19.1x    frame=14694 fps=459 q=-0.0 size=N/A time=00:10:12.86 bitrate=N/A speed=19.2x    frame=14945 fps=460 q=-0.0 size=N/A time=00:10:23.33 bitrate=N/A speed=19.2x    frame=15184 fps=460 q=-0.0 size=N/A time=00:10:33.29 bitrate=N/A speed=19.2x    frame=15444 fps=460 q=-0.0 size=N/A time=00:10:44.14 bitrate=N/A speed=19.2x    frame=15704 fps=461 q=-0.0 size=N/A time=00:10:55.02 bitrate=N/A speed=19.2x    frame=15966 fps=462 q=-0.0 size=N/A time=00:11:05.91 bitrate=N/A speed=19.3x    frame=16202 fps=462 q=-0.0 size=N/A time=00:11:15.75 bitrate=N/A speed=19.3x    frame=16460 fps=462 q=-0.0 size=N/A time=00:11:26.51 bitrate=N/A speed=19.3x    frame=16729 fps=463 q=-0.0 size=N/A time=00:11:37.73 bitrate=N/A speed=19.3x    frame=17003 fps=464 q=-0.0 size=N/A time=00:11:49.16 bitrate=N/A speed=19.4x    frame=17255 fps=464 q=-0.0 size=N/A time=00:11:59.67 bitrate=N/A speed=19.4x    frame=17528 fps=465 q=-0.0 size=N/A time=00:12:11.06 bitrate=N/A speed=19.4x    frame=17774 fps=465 q=-0.0 size=N/A time=00:12:21.32 bitrate=N/A speed=19.4x    frame=18046 fps=466 q=-0.0 size=N/A time=00:12:32.66 bitrate=N/A speed=19.4x    frame=18321 fps=467 q=-0.0 size=N/A time=00:12:44.13 bitrate=N/A speed=19.5x    frame=18581 fps=468 q=-0.0 size=N/A time=00:12:54.98 bitrate=N/A speed=19.5x    frame=18854 fps=468 q=-0.0 size=N/A time=00:13:06.36 bitrate=N/A speed=19.5x    frame=19122 fps=469 q=-0.0 size=N/A time=00:13:17.54 bitrate=N/A speed=19.6x    frame=19338 fps=468 q=-0.0 size=N/A time=00:13:26.55 bitrate=N/A speed=19.5x    frame=19554 fps=468 q=-0.0 size=N/A time=00:13:35.56 bitrate=N/A speed=19.5x    frame=19781 fps=467 q=-0.0 size=N/A time=00:13:45.03 bitrate=N/A speed=19.5x    frame=20019 fps=467 q=-0.0 size=N/A time=00:13:54.95 bitrate=N/A speed=19.5x    frame=20272 fps=468 q=-0.0 size=N/A time=00:14:05.51 bitrate=N/A speed=19.5x    frame=20525 fps=468 q=-0.0 size=N/A time=00:14:16.06 bitrate=N/A speed=19.5x    frame=20765 fps=468 q=-0.0 size=N/A time=00:14:26.07 bitrate=N/A speed=19.5x    frame=21029 fps=468 q=-0.0 size=N/A time=00:14:37.08 bitrate=N/A speed=19.5x    frame=21311 fps=469 q=-0.0 size=N/A time=00:14:48.84 bitrate=N/A speed=19.6x    frame=21579 fps=470 q=-0.0 size=N/A time=00:15:00.02 bitrate=N/A speed=19.6x    frame=21844 fps=470 q=-0.0 size=N/A time=00:15:11.07 bitrate=N/A speed=19.6x    frame=22103 fps=471 q=-0.0 size=N/A time=00:15:21.87 bitrate=N/A speed=19.6x    frame=22383 fps=471 q=-0.0 size=N/A time=00:15:33.59 bitrate=N/A speed=19.7x    frame=22659 fps=472 q=-0.0 size=N/A time=00:15:45.06 bitrate=N/A speed=19.7x    frame=22941 fps=473 q=-0.0 size=N/A time=00:15:56.83 bitrate=N/A speed=19.7x    frame=23200 fps=473 q=-0.0 size=N/A time=00:16:07.63 bitrate=N/A speed=19.7x    frame=23467 fps=474 q=-0.0 size=N/A time=00:16:18.76 bitrate=N/A speed=19.8x    frame=23738 fps=474 q=-0.0 size=N/A time=00:16:30.07 bitrate=N/A speed=19.8x    frame=24013 fps=475 q=-0.0 size=N/A time=00:16:41.54 bitrate=N/A speed=19.8x    frame=24259 fps=475 q=-0.0 size=N/A time=00:16:51.80 bitrate=N/A speed=19.8x    frame=24525 fps=475 q=-0.0 size=N/A time=00:17:02.89 bitrate=N/A speed=19.8x    frame=24789 fps=476 q=-0.0 size=N/A time=00:17:13.90 bitrate=N/A speed=19.8x    frame=25060 fps=476 q=-0.0 size=N/A time=00:17:25.21 bitrate=N/A speed=19.9x    frame=25321 fps=477 q=-0.0 size=N/A time=00:17:36.09 bitrate=N/A speed=19.9x    frame=25607 fps=477 q=-0.0 size=N/A time=00:17:48.02 bitrate=N/A speed=19.9x    frame=25885 fps=478 q=-0.0 size=N/A time=00:17:59.62 bitrate=N/A speed=19.9x    frame=26152 fps=478 q=-0.0 size=N/A time=00:18:10.75 bitrate=N/A speed=19.9x    frame=26414 fps=478 q=-0.0 size=N/A time=00:18:21.68 bitrate=N/A speed=  20x    frame=26678 fps=479 q=-0.0 size=N/A time=00:18:32.69 bitrate=N/A speed=  20x    frame=26953 fps=479 q=-0.0 size=N/A time=00:18:44.16 bitrate=N/A speed=  20x    frame=27217 fps=480 q=-0.0 size=N/A time=00:18:55.17 bitrate=N/A speed=  20x    frame=27483 fps=480 q=-0.0 size=N/A time=00:19:06.27 bitrate=N/A speed=  20x    frame=27746 fps=480 q=-0.0 size=N/A time=00:19:17.23 bitrate=N/A speed=  20x    frame=28022 fps=481 q=-0.0 size=N/A time=00:19:28.75 bitrate=N/A speed=  20x    frame=28290 fps=481 q=-0.0 size=N/A time=00:19:39.92 bitrate=N/A speed=20.1x    frame=28556 fps=481 q=-0.0 size=N/A time=00:19:51.02 bitrate=N/A speed=20.1x    frame=28826 fps=482 q=-0.0 size=N/A time=00:20:02.28 bitrate=N/A speed=20.1x    frame=29046 fps=481 q=-0.0 size=N/A time=00:20:11.46 bitrate=N/A speed=20.1x    frame=29250 fps=481 q=-0.0 size=N/A time=00:20:19.96 bitrate=N/A speed=  20x    frame=29455 fps=480 q=-0.0 size=N/A time=00:20:28.51 bitrate=N/A speed=  20x    frame=29665 fps=479 q=-0.0 size=N/A time=00:20:37.27 bitrate=N/A speed=  20x    frame=29839 fps=478 q=-0.0 size=N/A time=00:20:44.53 bitrate=N/A speed=19.9x    frame=30094 fps=478 q=-0.0 size=N/A time=00:20:55.17 bitrate=N/A speed=19.9x    frame=30361 fps=478 q=-0.0 size=N/A time=00:21:06.30 bitrate=N/A speed=  20x    frame=30609 fps=478 q=-0.0 size=N/A time=00:21:16.65 bitrate=N/A speed=  20x    frame=30865 fps=479 q=-0.0 size=N/A time=00:21:27.36 bitrate=N/A speed=  20x    frame=31135 fps=479 q=-0.0 size=N/A time=00:21:38.58 bitrate=N/A speed=  20x    frame=31341 fps=478 q=-0.0 size=N/A time=00:21:47.18 bitrate=N/A speed=19.9x    frame=31501 fps=477 q=-0.0 size=N/A time=00:21:53.85 bitrate=N/A speed=19.9x    frame=31647 fps=475 q=-0.0 size=N/A time=00:21:59.94 bitrate=N/A speed=19.8x    frame=31808 fps=474 q=-0.0 size=N/A time=00:22:06.65 bitrate=N/A speed=19.8x    frame=31975 fps=473 q=-0.0 size=N/A time=00:22:13.62 bitrate=N/A speed=19.7x    frame=32138 fps=472 q=-0.0 size=N/A time=00:22:20.42 bitrate=N/A speed=19.7x    frame=32291 fps=471 q=-0.0 size=N/A time=00:22:26.80 bitrate=N/A speed=19.6x    frame=32441 fps=469 q=-0.0 size=N/A time=00:22:33.06 bitrate=N/A speed=19.6x    frame=32589 fps=468 q=-0.0 size=N/A time=00:22:39.23 bitrate=N/A speed=19.5x    frame=32746 fps=467 q=-0.0 size=N/A time=00:22:45.78 bitrate=N/A speed=19.5x    frame=32955 fps=466 q=-0.0 size=N/A time=00:22:54.49 bitrate=N/A speed=19.4x    frame=33175 fps=466 q=-0.0 size=N/A time=00:23:03.67 bitrate=N/A speed=19.4x    frame=33400 fps=466 q=-0.0 size=N/A time=00:23:13.05 bitrate=N/A speed=19.4x    [Parsed_psnr_10 @ 00000246b84253c0] PSNR y:47.654024 u:50.322311 v:50.214822 average:48.363676 min:37.687346 max:inf
[out#0/null @ 00000246abd906c0] video:14363KiB audio:261432KiB subtitle:0KiB other streams:0KiB global headers:0KiB muxing overhead: unknown
frame=33427 fps=466 q=-0.0 Lsize=N/A time=00:23:14.18 bitrate=N/A speed=19.4x    
